<svg id="Layer_1" data-name="Layer 1" xmlns="http://www.w3.org/2000/svg" viewBox="0 0 259.84 94.83"><defs><style>.cls-1,.cls-2{fill:#fff}</style></defs><title>1st Finchampstead Scout Group</title><path class="cls-1" d="M0 57.17l4.71-5.64c3.26 2.69 6.68 4.4 10.82 4.4 3.26 0 5.23-1.29 5.23-3.42v-.1c0-2-1.24-3.05-7.3-4.61-7.3-1.86-12-3.88-12-11.08v-.1C1.45 30 6.73 25.7 14.13 25.7a21 21 0 0 1 13.47 4.61l-4.14 6c-3.21-2.23-6.37-3.57-9.42-3.57s-4.66 1.4-4.66 3.16v.1c0 2.38 1.55 3.16 7.82 4.76 7.35 1.92 11.49 4.56 11.49 10.87v.1c0 7.2-5.49 11.23-13.3 11.23A23.06 23.06 0 0 1 0 57.17m31.66-8.43v-.11A14.25 14.25 0 0 1 46.2 34.19c5.23 0 8.49 1.76 11.08 4.66L52.47 44c-1.76-1.84-3.52-3-6.32-3-3.94 0-6.73 3.47-6.73 7.56v.1c0 4.25 2.74 7.66 7 7.66 2.64 0 4.45-1.14 6.37-3L57.44 58a14 14 0 0 1-11.34 5.08 14.17 14.17 0 0 1-14.44-14.34m49.58 0v-.11a7.37 7.37 0 0 0-7.3-7.63c-4.5 0-7.2 3.47-7.2 7.56v.1A7.37 7.37 0 0 0 74 56.3c4.51 0 7.2-3.47 7.2-7.56m-22.2 0v-.11c0-8 6.42-14.44 15.07-14.44s15 6.37 15 14.34v.1c0 8-6.42 14.45-15.06 14.45S59 56.71 59 48.74m33.08 3.93v-18h7.87v15.52c0 3.73 1.76 5.64 4.76 5.64s4.92-1.91 4.92-5.64V34.71h7.87v27.75h-7.87v-3.94c-1.81 2.33-4.14 4.45-8.13 4.45-6 0-9.42-3.93-9.42-10.3m29.99 1.92v-27h7.87v7.09h6.53v6.73h-6.53v11.88c0 1.81.78 2.69 2.54 2.69a8 8 0 0 0 3.88-1v6.32a11.59 11.59 0 0 1-6.21 1.61c-4.81 0-8.08-1.92-8.08-8.34m17.86 4.21l3.37-5.18a15.68 15.68 0 0 0 8.7 3.32c2.28 0 3.31-.83 3.31-2.07v-.1c0-1.71-2.69-2.28-5.75-3.21-3.88-1.14-8.28-3-8.28-8.34v-.1c0-5.64 4.56-8.8 10.15-8.8a19.21 19.21 0 0 1 10.36 3.21l-3 5.44c-2.74-1.61-5.49-2.59-7.51-2.59s-2.9.83-2.9 1.92v.1c0 1.55 2.64 2.28 5.64 3.31 3.88 1.29 8.39 3.16 8.39 8.23V54c0 6.16-4.61 9-10.61 9a19.43 19.43 0 0 1-11.91-4.19M200.59 33a25.51 25.51 0 0 1 3.73 10h4.1A29.25 29.25 0 0 0 204 30.75c-3.28-5-7.55-7.69-12.35-7.69a12 12 0 0 0-9.4 4.51 12.67 12.67 0 0 0-2.53 10.7l4-.87a8.72 8.72 0 0 1 1.72-7.28 7.88 7.88 0 0 1 6.23-3c4.25 0 7.21 3.18 8.95 5.85m29.56 28.52a19.58 19.58 0 0 1-3.27-7.39h-4.14a23.08 23.08 0 0 0 3.38 8.71 17.22 17.22 0 0 1-6.53 6 17.22 17.22 0 0 1-6.53-6 23 23 0 0 0 3.38-8.71h-4.14a19.55 19.55 0 0 1-3.27 7.39l-.69 1 .49 1.08a20.71 20.71 0 0 0 9.93 9.41l.82.36.82-.36a20.71 20.71 0 0 0 9.93-9.41l.49-1.08-.69-1zM238.65 33a25.47 25.47 0 0 0-3.73 10h-4.1a29.24 29.24 0 0 1 4.42-12.27c3.28-5 7.55-7.69 12.35-7.69a12 12 0 0 1 9.4 4.51 12.66 12.66 0 0 1 2.53 10.7l-4-.87a8.73 8.73 0 0 0-1.72-7.28 7.88 7.88 0 0 0-6.23-3c-4.25 0-7.21 3.18-8.95 5.85M212.5 43h4.1c-.51-4.72-2.36-8.84-4-12.48s-3.19-7.07-3.17-10.5c0-3.94 2.28-8 6-10.74.65-.49 2.51-1.92 4.18-3.45 1.67 1.53 3.53 3 4.18 3.45 3.73 2.79 6 6.8 6 10.74 0 3.42-1.53 6.86-3.17 10.5s-3.49 7.76-4 12.48h4.1c.51-3.9 2.09-7.41 3.62-10.81 1.83-4.05 3.55-7.88 3.53-12.2 0-5.21-2.9-10.42-7.64-14a47.17 47.17 0 0 1-5.13-4.44L219.62 0l-1.49 1.61A47.23 47.23 0 0 1 213 6c-4.73 3.54-7.59 8.76-7.64 14 0 4.32 1.7 8.15 3.52 12.2 1.53 3.4 3.11 6.91 3.62 10.81m-16.14 7.51h46.51v-3.91h-46.51v3.91z"/><path class="cls-2" d="M10.92 91v-2.58H7.73V76.25H5.4L.7 79l1.24 2.35 2.52-1.47v8.55h-3.2V91zm5.92.17c2.81 0 4.45-1.15 4.45-3.19s-1.39-2.67-3-3l-1.74-.4c-.57-.15-1.13-.29-1.13-.88s.57-1 1.57-1a5.65 5.65 0 0 1 3.23 1.13l.84-2.1A5.9 5.9 0 0 0 17 80.49c-2.71 0-4.45 1.28-4.45 3.28s1.34 2.62 2.9 3l1.68.38c.67.15 1.34.31 1.34 1s-.55.9-1.55.9A6.12 6.12 0 0 1 13 87.77L12.18 90c.88.61 1.89 1.26 4.66 1.26zm11.57 0a11.47 11.47 0 0 0 1.22-.08l.17-2.31a8.65 8.65 0 0 1-1 .06c-1.15 0-1.72-.61-1.72-1.85v-3.88h2.58v-2.37h-2.59v-3H23.9v3h-2v2.37h2v3.95c0 2.83 1.45 4.16 4.51 4.16zM40.58 91v-6.19h6.34v-2.58h-6.34v-3.4h6.76v-2.58h-10V91zm11.7 0V80.74H49.1V91zm.13-12.3v-3H49v3zM64.81 91v-6.17c0-2.92-1.2-4.35-3.65-4.35a3.61 3.61 0 0 0-3.36 1.72v-1.46h-3.09V91h3.17v-5.72A2.08 2.08 0 0 1 60.06 83c1.07 0 1.57.63 1.57 2v6zm7.31.17a5.45 5.45 0 0 0 4-1.26l-.84-2.18a4 4 0 0 1-2.75 1c-1.7 0-2.6-1-2.6-2.94s.9-2.92 2.6-2.92a4 4 0 0 1 2.75 1l.84-2.16a5.08 5.08 0 0 0-3.88-1.28c-3.44 0-5.56 2.06-5.56 5.42s2 5.31 5.42 5.31zM87.68 91v-6.17c0-2.92-1.2-4.35-3.65-4.35a3.57 3.57 0 0 0-3.28 1.62v-5.85h-3.17V91h3.17v-5.72A2.08 2.08 0 0 1 82.93 83c1.07 0 1.57.63 1.57 2v6zm5.69.17a2.71 2.71 0 0 0 2.79-1.7V91h3v-6c0-3-1.47-4.47-4.51-4.47a8.11 8.11 0 0 0-4.6 1.28l.84 2.12a6.9 6.9 0 0 1 3.46-1c1.28 0 1.78.48 1.78 1.68v.38c-4.83 0-6.51.8-6.51 3 0 2 1.51 3.28 3.74 3.28zm2.77-4.77v.36A2 2 0 0 1 94.06 89a1.29 1.29 0 0 1-1.36-1.32c0-.94.86-1.26 3.44-1.26zm21.57 4.6v-6.17c0-2.92-1.15-4.35-3.49-4.35a3.61 3.61 0 0 0-3.4 1.91 3 3 0 0 0-3.07-1.91 3.24 3.24 0 0 0-3.13 1.64v-1.38h-3.09V91h3.17v-5.64c0-1.55.67-2.39 1.89-2.39 1 0 1.43.59 1.43 2V91h3.17v-5.64c0-1.55.69-2.39 1.91-2.39 1 0 1.43.59 1.43 2V91zm5.59 3.78v-5.2a3.36 3.36 0 0 0 3.19 1.64c2.81 0 4.56-2 4.56-5.31s-1.76-5.42-4.56-5.42a3.42 3.42 0 0 0-3.25 1.7v-1.45h-3.14v14.09zm2.27-11.93c1.51 0 2.33 1.07 2.33 3s-.82 2.9-2.33 2.9-2.33-1-2.33-2.94.82-3 2.33-3zM137 91.22c2.81 0 4.45-1.15 4.45-3.19s-1.39-2.67-3-3l-1.74-.4c-.57-.15-1.13-.29-1.13-.88s.57-1 1.57-1a5.65 5.65 0 0 1 3.23 1.13l.84-2.1a5.9 5.9 0 0 0-4.05-1.28c-2.71 0-4.45 1.28-4.45 3.28s1.34 2.62 2.9 3l1.68.38c.67.15 1.34.31 1.34 1S138 89 137 89a6.12 6.12 0 0 1-3.88-1.2l-.82 2.2c.88.61 1.89 1.26 4.66 1.26zm11.57 0a11.47 11.47 0 0 0 1.22-.08l.17-2.31a8.65 8.65 0 0 1-1 .06c-1.15 0-1.72-.61-1.72-1.85v-3.93h2.58v-2.37h-2.58v-3H144v3h-2v2.37h2v3.95c0 2.83 1.45 4.16 4.51 4.16zm7.92 0a5.57 5.57 0 0 0 4-1.26l-.84-2.12a4.38 4.38 0 0 1-3 1 2.36 2.36 0 0 1-2.67-2.35h6.72v-.78c0-3.28-1.76-5.23-4.7-5.23s-5.08 2.1-5.08 5.38 2.08 5.35 5.61 5.35zm-.49-8.55c1.26 0 1.85.84 1.93 2.25h-4c.15-1.3.76-2.25 2.1-2.25zm9.83 8.55a2.71 2.71 0 0 0 2.79-1.7V91h3v-6c0-3-1.47-4.47-4.51-4.47a8.11 8.11 0 0 0-4.6 1.28l.84 2.12a6.9 6.9 0 0 1 3.46-1c1.28 0 1.78.48 1.78 1.68v.38c-4.83 0-6.51.8-6.51 3 0 2 1.51 3.28 3.74 3.28zm2.77-4.77v.36a2 2 0 0 1-2.07 2.19 1.29 1.29 0 0 1-1.36-1.32c0-.94.86-1.26 3.44-1.26zm9.45 4.77a3.39 3.39 0 0 0 3.23-1.7V91h3.15V76.25h-3.17v5.92a3.38 3.38 0 0 0-3.21-1.68c-2.81 0-4.58 2-4.58 5.31s1.78 5.42 4.58 5.42zm.95-8.32c1.49 0 2.31 1 2.31 2.94s-.82 3-2.31 3-2.35-1-2.35-3 .82-2.9 2.35-2.9z"/></svg>