<svg id="Layer_1" data-name="Layer 1" xmlns="http://www.w3.org/2000/svg" viewBox="0 0 259.84 94.83"><defs><style>.cls-1{fill:white;}.cls-2{fill:white;}</style></defs><title>1st Finchampstead Scout Group</title><path class="cls-1" d="M0,57.17l4.71-5.64c3.26,2.69,6.68,4.4,10.82,4.4,3.26,0,5.23-1.29,5.23-3.42v-.1c0-2-1.24-3.05-7.3-4.61-7.3-1.86-12-3.88-12-11.08v-.1C1.45,30,6.73,25.7,14.13,25.7A21,21,0,0,1,27.6,30.31l-4.14,6c-3.21-2.23-6.37-3.57-9.42-3.57s-4.66,1.4-4.66,3.16V36c0,2.38,1.55,3.16,7.82,4.76,7.35,1.92,11.49,4.56,11.49,10.87v.1c0,7.2-5.49,11.23-13.3,11.23A23.06,23.06,0,0,1,0,57.17"/><path class="cls-1" d="M31.66,48.74v-.11A14.25,14.25,0,0,1,46.2,34.19c5.23,0,8.49,1.76,11.08,4.66L52.47,44C50.71,42.16,48.95,41,46.15,41c-3.94,0-6.73,3.47-6.73,7.56v.1c0,4.25,2.74,7.66,7,7.66,2.64,0,4.45-1.14,6.37-3L57.44,58A14,14,0,0,1,46.1,63.08,14.17,14.17,0,0,1,31.66,48.74"/><path class="cls-1" d="M81.24,48.74v-.11A7.37,7.37,0,0,0,73.94,41c-4.5,0-7.2,3.47-7.2,7.56v.1A7.37,7.37,0,0,0,74,56.3c4.51,0,7.2-3.47,7.2-7.56M59,48.74v-.11c0-8,6.42-14.44,15.07-14.44s15,6.37,15,14.34v.1c0,8-6.42,14.45-15.06,14.45S59,56.71,59,48.74"/><path class="cls-1" d="M92.08,52.67v-18h7.87V50.19c0,3.73,1.76,5.64,4.76,5.64s4.92-1.91,4.92-5.64V34.71h7.87V62.46h-7.87V58.52c-1.81,2.33-4.14,4.45-8.13,4.45-6,0-9.42-3.93-9.42-10.3"/><path class="cls-1" d="M122.07,54.59v-27h7.87v7.09h6.53v6.73h-6.53V53.29c0,1.81.78,2.69,2.54,2.69a8,8,0,0,0,3.88-1v6.32a11.59,11.59,0,0,1-6.21,1.61c-4.81,0-8.08-1.92-8.08-8.34"/><path class="cls-1" d="M139.93,58.78l3.37-5.18A15.68,15.68,0,0,0,152,56.92c2.28,0,3.31-.83,3.31-2.07v-.1c0-1.71-2.69-2.28-5.75-3.21-3.88-1.14-8.28-3-8.28-8.34v-.1c0-5.64,4.56-8.8,10.15-8.8a19.21,19.21,0,0,1,10.36,3.21l-3,5.44c-2.74-1.61-5.49-2.59-7.51-2.59s-2.9.83-2.9,1.92v.1c0,1.55,2.64,2.28,5.64,3.31,3.88,1.29,8.39,3.16,8.39,8.23V54c0,6.16-4.61,9-10.61,9a19.43,19.43,0,0,1-11.91-4.19"/><path class="cls-1" d="M200.59,33a25.51,25.51,0,0,1,3.73,10h4.1A29.25,29.25,0,0,0,204,30.75c-3.28-5-7.55-7.69-12.35-7.69h0a12,12,0,0,0-9.4,4.51,12.67,12.67,0,0,0-2.53,10.7l4-.87a8.72,8.72,0,0,1,1.72-7.28,7.88,7.88,0,0,1,6.23-3h0c4.25,0,7.21,3.18,8.95,5.85"/><path class="cls-1" d="M230.18,61.49a19.58,19.58,0,0,1-3.27-7.39h-4.14a23.08,23.08,0,0,0,3.38,8.71,17.22,17.22,0,0,1-6.53,6h0a17.22,17.22,0,0,1-6.53-6,23,23,0,0,0,3.38-8.71h-4.14a19.55,19.55,0,0,1-3.27,7.39l-.69,1,.49,1.08a20.71,20.71,0,0,0,9.93,9.41l.82.36h0l.82-.36a20.71,20.71,0,0,0,9.93-9.41l.49-1.08-.69-1Z"/><path class="cls-1" d="M238.65,33a25.47,25.47,0,0,0-3.73,10h-4.1a29.24,29.24,0,0,1,4.42-12.27c3.28-5,7.55-7.69,12.35-7.69h0a12,12,0,0,1,9.4,4.51,12.66,12.66,0,0,1,2.53,10.7l-4-.87a8.73,8.73,0,0,0-1.72-7.28,7.88,7.88,0,0,0-6.23-3h0c-4.25,0-7.21,3.18-8.95,5.85"/><path class="cls-1" d="M212.5,43h4.1c-.51-4.72-2.36-8.84-4-12.48s-3.19-7.07-3.17-10.5c0-3.94,2.28-8,6-10.74.65-.49,2.51-1.92,4.18-3.45,1.67,1.53,3.53,3,4.18,3.45,3.73,2.79,6,6.8,6,10.74,0,3.42-1.53,6.86-3.17,10.5s-3.49,7.76-4,12.48h4.1c.51-3.9,2.09-7.41,3.62-10.81,1.83-4.05,3.55-7.88,3.53-12.2,0-5.21-2.9-10.42-7.64-14a47.17,47.17,0,0,1-5.13-4.44L219.62,0l-1.49,1.61A47.23,47.23,0,0,1,213,6c-4.73,3.54-7.59,8.76-7.64,14,0,4.32,1.7,8.15,3.52,12.2,1.53,3.4,3.11,6.91,3.62,10.81"/><polygon class="cls-1" points="196.36 50.52 242.87 50.52 242.87 46.61 196.36 46.61 196.36 50.52 196.36 50.52"/><path class="cls-2" d="M10.92,91V88.42H7.73V76.25H5.4L.7,79l1.24,2.35,2.52-1.47v8.55H1.26V91Zm5.92.17c2.81,0,4.45-1.15,4.45-3.19s-1.39-2.67-3-3l-1.74-.4c-.57-.15-1.13-.29-1.13-.88s.57-1,1.57-1a5.65,5.65,0,0,1,3.23,1.13l.84-2.1A5.9,5.9,0,0,0,17,80.49c-2.71,0-4.45,1.28-4.45,3.28s1.34,2.62,2.9,3l1.68.38c.67.15,1.34.31,1.34,1s-.55.9-1.55.9A6.12,6.12,0,0,1,13,87.77L12.18,90c.88.61,1.89,1.26,4.66,1.26Zm11.57,0a11.47,11.47,0,0,0,1.22-.08l.17-2.31a8.65,8.65,0,0,1-1,.06c-1.15,0-1.72-.61-1.72-1.85V83.11h2.58V80.74H27.07v-3H23.9v3h-2v2.37h2v3.95c0,2.83,1.45,4.16,4.51,4.16ZM40.58,91V84.81h6.34V82.23H40.58v-3.4h6.76V76.25h-10V91Zm11.7,0V80.74H49.1V91Zm.13-12.3v-3H49v3ZM64.81,91V84.83c0-2.92-1.2-4.35-3.65-4.35a3.61,3.61,0,0,0-3.36,1.72V80.74H54.71V91h3.17V85.28A2.08,2.08,0,0,1,60.06,83c1.07,0,1.57.63,1.57,2V91Zm7.31.17a5.45,5.45,0,0,0,4-1.26l-.84-2.18a4,4,0,0,1-2.75,1c-1.7,0-2.6-1-2.6-2.94s.9-2.92,2.6-2.92a4,4,0,0,1,2.75,1l.84-2.16a5.08,5.08,0,0,0-3.88-1.28c-3.44,0-5.56,2.06-5.56,5.42s2,5.31,5.42,5.31ZM87.68,91V84.83c0-2.92-1.2-4.35-3.65-4.35a3.57,3.57,0,0,0-3.28,1.62V76.25H77.58V91h3.17V85.28A2.08,2.08,0,0,1,82.93,83c1.07,0,1.57.63,1.57,2V91Zm5.69.17a2.71,2.71,0,0,0,2.79-1.7V91h3V85c0-3-1.47-4.47-4.51-4.47a8.11,8.11,0,0,0-4.6,1.28l.84,2.12a6.9,6.9,0,0,1,3.46-1c1.28,0,1.78.48,1.78,1.68v.38c-4.83,0-6.51.8-6.51,3,0,2,1.51,3.28,3.74,3.28Zm2.77-4.77v.36A2,2,0,0,1,94.06,89a1.29,1.29,0,0,1-1.36-1.32c0-.94.86-1.26,3.44-1.26ZM117.71,91V84.83c0-2.92-1.15-4.35-3.49-4.35a3.61,3.61,0,0,0-3.4,1.91,3,3,0,0,0-3.07-1.91,3.24,3.24,0,0,0-3.13,1.64V80.74h-3.09V91h3.17V85.36c0-1.55.67-2.39,1.89-2.39,1,0,1.43.59,1.43,2V91h3.17V85.36c0-1.55.69-2.39,1.91-2.39,1,0,1.43.59,1.43,2V91Zm5.59,3.78V89.58a3.36,3.36,0,0,0,3.19,1.64c2.81,0,4.56-2,4.56-5.31s-1.76-5.42-4.56-5.42a3.42,3.42,0,0,0-3.25,1.7V80.74H120.1V94.83Zm2.27-11.93c1.51,0,2.33,1.07,2.33,3s-.82,2.9-2.33,2.9-2.33-1-2.33-2.94.82-3,2.33-3ZM137,91.22c2.81,0,4.45-1.15,4.45-3.19s-1.39-2.67-3-3l-1.74-.4c-.57-.15-1.13-.29-1.13-.88s.57-1,1.57-1a5.65,5.65,0,0,1,3.23,1.13l.84-2.1a5.9,5.9,0,0,0-4.05-1.28c-2.71,0-4.45,1.28-4.45,3.28s1.34,2.62,2.9,3l1.68.38c.67.15,1.34.31,1.34,1S138,89,137,89a6.12,6.12,0,0,1-3.88-1.2L132.3,90c.88.61,1.89,1.26,4.66,1.26Zm11.57,0a11.47,11.47,0,0,0,1.22-.08l.17-2.31a8.65,8.65,0,0,1-1,.06c-1.15,0-1.72-.61-1.72-1.85V83.11h2.58V80.74h-2.58v-3H144v3h-2v2.37h2v3.95c0,2.83,1.45,4.16,4.51,4.16Zm7.92,0a5.57,5.57,0,0,0,4-1.26l-.84-2.12a4.38,4.38,0,0,1-3,1,2.36,2.36,0,0,1-2.67-2.35h6.72v-.78c0-3.28-1.76-5.23-4.7-5.23s-5.08,2.1-5.08,5.38,2.08,5.35,5.61,5.35ZM156,82.67c1.26,0,1.85.84,1.93,2.25h-4c.15-1.3.76-2.25,2.1-2.25Zm9.83,8.55a2.71,2.71,0,0,0,2.79-1.7V91h3V85c0-3-1.47-4.47-4.51-4.47a8.11,8.11,0,0,0-4.6,1.28l.84,2.12a6.9,6.9,0,0,1,3.46-1c1.28,0,1.78.48,1.78,1.68v.38c-4.83,0-6.51.8-6.51,3,0,2,1.51,3.28,3.74,3.28Zm2.77-4.77v.36A2,2,0,0,1,166.53,89a1.29,1.29,0,0,1-1.36-1.32c0-.94.86-1.26,3.44-1.26Zm9.45,4.77a3.39,3.39,0,0,0,3.23-1.7V91h3.15V76.25h-3.17v5.92a3.38,3.38,0,0,0-3.21-1.68c-2.81,0-4.58,2-4.58,5.31s1.78,5.42,4.58,5.42ZM179,82.9c1.49,0,2.31,1,2.31,2.94s-.82,3-2.31,3-2.35-1-2.35-3,.82-2.9,2.35-2.9Z"/></svg>